<svg xmlns="http://www.w3.org/2000/svg" xmlns:xlink="http://www.w3.org/1999/xlink" width="800" zoomAndPan="magnify" viewBox="0 0 600 599.999999" height="800" preserveAspectRatio="xMidYMid meet" version="1.0"><defs><g/><clipPath id="e4de1f7558"><path d="M 70.0625 263.175781 L 157.8125 263.175781 L 157.8125 350.925781 L 70.0625 350.925781 Z M 70.0625 263.175781 " clip-rule="nonzero"/></clipPath><clipPath id="24de6df4b5"><path d="M 0.0625 0.175781 L 87.496094 0.175781 L 87.496094 87.640625 L 0.0625 87.640625 Z M 0.0625 0.175781 " clip-rule="nonzero"/></clipPath><clipPath id="653d6dbac7"><rect x="0" width="88" y="0" height="88"/></clipPath><clipPath id="b2d726aeb8"><rect x="0" width="366" y="0" height="90"/></clipPath></defs><rect x="-60" width="720" fill="#ffffff" y="-60" height="719.999999" fill-opacity="1"/><rect x="-60" width="720" fill="#00347d" y="-60" height="719.999999" fill-opacity="1"/><g clip-path="url(#e4de1f7558)"><g transform="matrix(1, 0, 0, 1, 70, 263)"><g clip-path="url(#653d6dbac7)"><g clip-path="url(#24de6df4b5)"><path fill="#ffffff" d="M 87.496094 71.46875 L 87.496094 16.320312 C 87.496094 7.441406 80.230469 0.175781 71.355469 0.175781 L 16.203125 0.175781 C 7.324219 0.175781 0.0625 7.441406 0.0625 16.320312 L 0.0625 71.46875 C 0.0625 80.347656 7.324219 87.609375 16.203125 87.609375 L 71.355469 87.609375 C 80.230469 87.609375 87.496094 80.347656 87.496094 71.46875 Z M 87.496094 71.46875 " fill-opacity="1" fill-rule="nonzero"/></g><path fill="#101164" d="M 65.367188 52.339844 C 69.160156 52.339844 72.226562 55.40625 72.226562 59.203125 C 72.226562 62.996094 69.160156 66.0625 65.367188 66.0625 C 62.042969 66.0625 59.191406 63.679688 58.613281 60.414062 C 57.953125 56.6875 60.441406 53.121094 64.167969 52.460938 C 64.558594 52.394531 64.960938 52.355469 65.367188 52.339844 Z M 65.367188 63.574219 C 67.785156 63.574219 69.75 61.609375 69.75 59.1875 C 69.75 56.765625 67.785156 54.804688 65.367188 54.804688 C 62.945312 54.804688 60.980469 56.765625 60.980469 59.1875 C 60.980469 61.621094 62.945312 63.574219 65.367188 63.574219 Z M 65.367188 63.574219 " fill-opacity="1" fill-rule="nonzero"/><path fill="#101164" d="M 63.132812 59.203125 C 63.132812 60.4375 64.128906 61.433594 65.367188 61.433594 C 66.601562 61.433594 67.597656 60.4375 67.597656 59.203125 C 67.597656 57.964844 66.601562 56.96875 65.367188 56.96875 C 64.128906 56.96875 63.132812 57.964844 63.132812 59.203125 Z M 63.132812 59.203125 " fill-opacity="1" fill-rule="nonzero"/><path fill="#101164" d="M 23.195312 52.339844 C 26.988281 52.339844 30.054688 55.421875 30.054688 59.203125 C 30.054688 59.605469 30.015625 60.007812 29.949219 60.398438 C 29.277344 64.125 25.710938 66.613281 21.984375 65.941406 C 18.257812 65.269531 15.769531 61.703125 16.441406 57.976562 C 17.019531 54.707031 19.871094 52.328125 23.195312 52.339844 Z M 23.195312 63.574219 C 25.617188 63.574219 27.582031 61.609375 27.582031 59.1875 C 27.582031 56.765625 25.617188 54.804688 23.195312 54.804688 C 20.773438 54.804688 18.808594 56.765625 18.808594 59.1875 C 18.808594 61.621094 20.773438 63.574219 23.195312 63.574219 Z M 23.195312 63.574219 " fill-opacity="1" fill-rule="nonzero"/><path fill="#101164" d="M 20.960938 59.203125 C 20.960938 60.4375 21.957031 61.433594 23.195312 61.433594 C 24.433594 61.433594 25.429688 60.4375 25.429688 59.203125 C 25.429688 57.964844 24.433594 56.96875 23.195312 56.96875 C 21.957031 56.96875 20.960938 57.964844 20.960938 59.203125 Z M 20.960938 59.203125 " fill-opacity="1" fill-rule="nonzero"/><path fill="#101164" d="M 44.367188 53.027344 L 50.367188 53.027344 L 53.890625 46.179688 L 46.089844 46.179688 Z M 44.367188 53.027344 " fill-opacity="1" fill-rule="nonzero"/><path fill="#101164" d="M 32.503906 43.101562 L 34.089844 44.554688 L 38.03125 40.476562 L 39.742188 42.386719 C 40.128906 42.832031 40.816406 42.871094 41.261719 42.480469 C 41.703125 42.089844 41.746094 41.40625 41.355469 40.960938 L 38.90625 38.203125 L 36.566406 35.566406 C 36.175781 35.125 35.488281 35.082031 35.046875 35.472656 C 34.601562 35.863281 34.5625 36.550781 34.953125 36.992188 L 36.605469 38.851562 Z M 32.503906 43.101562 " fill-opacity="1" fill-rule="nonzero"/><path fill="#101164" d="M 20.894531 43.34375 L 22.820312 42.910156 L 32.8125 23.824219 C 33 23.476562 33.363281 23.246094 33.769531 23.246094 L 56.328125 23.246094 C 56.570312 23.246094 56.796875 23.328125 56.984375 23.476562 L 65.566406 30.132812 C 65.824219 30.335938 65.984375 30.644531 65.984375 30.980469 L 65.984375 39.320312 L 67.492188 39.320312 L 67.492188 29.714844 L 57.226562 21.726562 L 32.207031 21.726562 Z M 20.894531 43.34375 " fill-opacity="1" fill-rule="nonzero"/><path fill="#101164" d="M 72.359375 41.472656 L 72.359375 44.996094 C 72.359375 45.789062 72.882812 46.476562 73.636719 46.691406 L 73.636719 41.472656 Z M 72.359375 41.472656 " fill-opacity="1" fill-rule="nonzero"/><path fill="#101164" d="M 13.914062 47.136719 L 13.914062 49.019531 L 14.640625 49.019531 C 15.152344 49.019531 15.570312 48.601562 15.570312 48.078125 C 15.570312 47.96875 15.554688 47.863281 15.515625 47.769531 L 15.179688 46.839844 Z M 13.914062 47.136719 " fill-opacity="1" fill-rule="nonzero"/><path fill="#101164" d="M 14.640625 51.171875 C 16.347656 51.171875 17.734375 49.800781 17.734375 48.089844 C 17.734375 47.726562 17.667969 47.378906 17.546875 47.042969 L 17.304688 46.367188 L 23.734375 44.902344 C 23.746094 44.902344 23.773438 44.902344 23.789062 44.890625 L 23.8125 44.875 L 29.746094 43.53125 L 34.402344 47.726562 L 34.402344 54.117188 C 34.402344 54.707031 34.882812 55.191406 35.476562 55.191406 L 51.027344 55.191406 C 51.429688 55.191406 51.804688 54.964844 51.980469 54.601562 L 56.609375 45.617188 L 58.71875 41.472656 L 70.207031 41.472656 L 70.207031 44.996094 C 70.207031 46.972656 71.675781 48.640625 73.636719 48.882812 L 73.636719 52.046875 L 70.839844 52.046875 C 66.898438 49.019531 61.25 49.757812 58.222656 53.699219 C 57.011719 55.273438 56.367188 57.199219 56.367188 59.1875 C 56.367188 59.28125 56.367188 59.390625 56.367188 59.484375 L 32.195312 59.484375 C 32.195312 59.390625 32.195312 59.28125 32.195312 59.1875 C 32.207031 54.210938 28.171875 50.175781 23.210938 50.164062 C 19.777344 50.164062 16.632812 52.097656 15.113281 55.179688 L 13.902344 55.179688 L 13.902344 51.144531 Z M 61.746094 48.628906 L 65.632812 48.628906 C 66.226562 48.628906 66.710938 48.144531 66.710938 47.550781 C 66.710938 46.960938 66.226562 46.476562 65.632812 46.476562 L 61.734375 46.476562 C 61.140625 46.476562 60.65625 46.960938 60.65625 47.550781 C 60.65625 48.144531 61.140625 48.628906 61.746094 48.628906 Z M 61.746094 45.496094 L 65.632812 45.496094 C 66.226562 45.496094 66.710938 45.011719 66.710938 44.417969 C 66.710938 43.828125 66.226562 43.34375 65.632812 43.34375 L 61.734375 43.34375 C 61.140625 43.34375 60.65625 43.828125 60.65625 44.417969 C 60.65625 45.011719 61.140625 45.496094 61.746094 45.496094 Z M 61.746094 45.496094 " fill-opacity="1" fill-rule="nonzero"/></g></g></g><g transform="matrix(1, 0, 0, 1, 169, 247)"><g clip-path="url(#b2d726aeb8)"><g fill="#ffffff" fill-opacity="1"><g transform="translate(0.309819, 71.706022)"><g><path d="M 29.265625 -56.4375 C 36.359375 -56.4375 42.1875 -55 46.75 -52.125 C 51.320312 -49.25 53.664062 -44.988281 53.78125 -39.34375 L 53.78125 -38.375 L 37.09375 -38.375 L 37.09375 -38.703125 C 37.09375 -40.316406 36.5 -41.660156 35.3125 -42.734375 C 34.132812 -43.804688 32.332031 -44.34375 29.90625 -44.34375 C 27.539062 -44.34375 25.726562 -43.992188 24.46875 -43.296875 C 23.207031 -42.597656 22.578125 -41.738281 22.578125 -40.71875 C 22.578125 -39.257812 23.4375 -38.179688 25.15625 -37.484375 C 26.875 -36.785156 29.640625 -36.0625 33.453125 -35.3125 C 37.921875 -34.394531 41.59375 -33.4375 44.46875 -32.4375 C 47.34375 -31.445312 49.851562 -29.820312 52 -27.5625 C 54.15625 -25.3125 55.257812 -22.25 55.3125 -18.375 C 55.3125 -11.820312 53.09375 -6.957031 48.65625 -3.78125 C 44.21875 -0.613281 38.289062 0.96875 30.875 0.96875 C 22.226562 0.96875 15.5 -0.476562 10.6875 -3.375 C 5.875 -6.28125 3.46875 -11.414062 3.46875 -18.78125 L 20.3125 -18.78125 C 20.3125 -15.988281 21.035156 -14.117188 22.484375 -13.171875 C 23.941406 -12.234375 26.203125 -11.765625 29.265625 -11.765625 C 31.523438 -11.765625 33.394531 -12.003906 34.875 -12.484375 C 36.351562 -12.972656 37.09375 -13.972656 37.09375 -15.484375 C 37.09375 -16.828125 36.269531 -17.832031 34.625 -18.5 C 32.988281 -19.175781 30.316406 -19.890625 26.609375 -20.640625 C 22.085938 -21.609375 18.347656 -22.613281 15.390625 -23.65625 C 12.441406 -24.707031 9.863281 -26.441406 7.65625 -28.859375 C 5.457031 -31.273438 4.359375 -34.554688 4.359375 -38.703125 C 4.359375 -44.773438 6.707031 -49.25 11.40625 -52.125 C 16.113281 -55 22.066406 -56.4375 29.265625 -56.4375 Z M 29.265625 -56.4375 "/></g></g></g><g fill="#ffffff" fill-opacity="1"><g transform="translate(64.640012, 71.706022)"><g><path d="M 6.765625 0 L 6.765625 -55.46875 L 24.59375 -55.46875 L 24.59375 0 Z M 6.765625 0 "/></g></g></g><g fill="#ffffff" fill-opacity="1"><g transform="translate(102.126269, 71.706022)"><g><path d="M 53.609375 0 L 53.609375 -20 C 53.609375 -22.46875 53.703125 -25.003906 53.890625 -27.609375 C 54.085938 -30.222656 54.289062 -32.414062 54.5 -34.1875 C 54.71875 -35.957031 54.851562 -37.085938 54.90625 -37.578125 L 54.578125 -37.578125 L 44.34375 0 L 30.390625 0 L 20.078125 -37.484375 L 19.75 -37.484375 C 19.800781 -37.003906 19.945312 -35.890625 20.1875 -34.140625 C 20.4375 -32.398438 20.664062 -30.222656 20.875 -27.609375 C 21.09375 -25.003906 21.203125 -22.46875 21.203125 -20 L 21.203125 0 L 4.84375 0 L 4.84375 -55.46875 L 30 -55.46875 L 38.375 -23.46875 L 38.703125 -23.46875 L 47 -55.46875 L 71.265625 -55.46875 L 71.265625 0 Z M 53.609375 0 "/></g></g></g><g fill="#ffffff" fill-opacity="1"><g transform="translate(184.352432, 71.706022)"><g><path d="M 33.546875 -56.4375 C 43.109375 -56.4375 50.492188 -53.988281 55.703125 -49.09375 C 60.921875 -44.207031 63.53125 -37.085938 63.53125 -27.734375 C 63.53125 -18.378906 60.921875 -11.253906 55.703125 -6.359375 C 50.492188 -1.472656 43.109375 0.96875 33.546875 0.96875 C 23.972656 0.96875 16.59375 -1.460938 11.40625 -6.328125 C 6.21875 -11.191406 3.625 -18.328125 3.625 -27.734375 C 3.625 -37.140625 6.21875 -44.273438 11.40625 -49.140625 C 16.59375 -54.003906 23.972656 -56.4375 33.546875 -56.4375 Z M 33.546875 -43.140625 C 29.722656 -43.140625 26.816406 -41.984375 24.828125 -39.671875 C 22.835938 -37.359375 21.84375 -34.238281 21.84375 -30.3125 L 21.84375 -25.15625 C 21.84375 -21.226562 22.835938 -18.109375 24.828125 -15.796875 C 26.816406 -13.484375 29.722656 -12.328125 33.546875 -12.328125 C 37.359375 -12.328125 40.269531 -13.484375 42.28125 -15.796875 C 44.300781 -18.109375 45.3125 -21.226562 45.3125 -25.15625 L 45.3125 -30.3125 C 45.3125 -34.238281 44.300781 -37.359375 42.28125 -39.671875 C 40.269531 -41.984375 37.359375 -43.140625 33.546875 -43.140625 Z M 33.546875 -43.140625 "/></g></g></g><g fill="#ffffff" fill-opacity="1"><g transform="translate(257.630609, 71.706022)"><g><path d="M 42.890625 -55.46875 C 45.679688 -55.46875 48.242188 -54.890625 50.578125 -53.734375 C 52.921875 -52.578125 54.78125 -50.953125 56.15625 -48.859375 C 57.53125 -46.765625 58.21875 -44.425781 58.21875 -41.84375 C 58.21875 -35.019531 55.125 -30.71875 48.9375 -28.9375 L 48.9375 -28.625 C 55.976562 -27.007812 59.5 -22.382812 59.5 -14.75 C 59.5 -11.851562 58.785156 -9.285156 57.359375 -7.046875 C 55.941406 -4.816406 53.992188 -3.082031 51.515625 -1.84375 C 49.046875 -0.613281 46.332031 0 43.375 0 L 5.96875 0 L 5.96875 -55.46875 Z M 23.78125 -33.859375 L 36.046875 -33.859375 C 37.222656 -33.859375 38.203125 -34.273438 38.984375 -35.109375 C 39.765625 -35.941406 40.15625 -36.976562 40.15625 -38.21875 L 40.15625 -39.015625 C 40.15625 -40.203125 39.75 -41.210938 38.9375 -42.046875 C 38.132812 -42.878906 37.171875 -43.296875 36.046875 -43.296875 L 23.78125 -43.296875 Z M 23.78125 -12.90625 L 37.328125 -12.90625 C 38.515625 -12.90625 39.492188 -13.320312 40.265625 -14.15625 C 41.046875 -14.988281 41.4375 -16.019531 41.4375 -17.25 L 41.4375 -18.0625 C 41.4375 -19.300781 41.046875 -20.332031 40.265625 -21.15625 C 39.492188 -21.988281 38.515625 -22.40625 37.328125 -22.40625 L 23.78125 -22.40625 Z M 23.78125 -12.90625 "/></g></g></g><g fill="#ffffff" fill-opacity="1"><g transform="translate(326.475099, 71.706022)"><g><path d="M 6.765625 0 L 6.765625 -55.46875 L 24.59375 -55.46875 L 24.59375 0 Z M 6.765625 0 "/></g></g></g></g></g><g fill="#ffffff" fill-opacity="1"><g transform="translate(168.870711, 348.498639)"><g><path d="M 9.328125 -18 C 11.585938 -18 13.445312 -17.535156 14.90625 -16.609375 C 16.363281 -15.691406 17.109375 -14.335938 17.140625 -12.546875 L 17.140625 -12.234375 L 11.828125 -12.234375 L 11.828125 -12.34375 C 11.828125 -12.851562 11.632812 -13.28125 11.25 -13.625 C 10.875 -13.96875 10.300781 -14.140625 9.53125 -14.140625 C 8.78125 -14.140625 8.203125 -14.023438 7.796875 -13.796875 C 7.398438 -13.578125 7.203125 -13.304688 7.203125 -12.984375 C 7.203125 -12.515625 7.472656 -12.171875 8.015625 -11.953125 C 8.566406 -11.734375 9.453125 -11.503906 10.671875 -11.265625 C 12.085938 -10.972656 13.253906 -10.664062 14.171875 -10.34375 C 15.085938 -10.03125 15.890625 -9.515625 16.578125 -8.796875 C 17.265625 -8.078125 17.613281 -7.097656 17.625 -5.859375 C 17.625 -3.765625 16.914062 -2.210938 15.5 -1.203125 C 14.09375 -0.191406 12.207031 0.3125 9.84375 0.3125 C 7.082031 0.3125 4.9375 -0.148438 3.40625 -1.078125 C 1.875 -2.003906 1.109375 -3.640625 1.109375 -5.984375 L 6.484375 -5.984375 C 6.484375 -5.097656 6.710938 -4.503906 7.171875 -4.203125 C 7.628906 -3.898438 8.347656 -3.75 9.328125 -3.75 C 10.046875 -3.75 10.640625 -3.828125 11.109375 -3.984375 C 11.585938 -4.140625 11.828125 -4.457031 11.828125 -4.9375 C 11.828125 -5.363281 11.5625 -5.679688 11.03125 -5.890625 C 10.507812 -6.109375 9.660156 -6.335938 8.484375 -6.578125 C 7.046875 -6.890625 5.851562 -7.210938 4.90625 -7.546875 C 3.96875 -7.878906 3.144531 -8.429688 2.4375 -9.203125 C 1.738281 -9.972656 1.390625 -11.019531 1.390625 -12.34375 C 1.390625 -14.269531 2.140625 -15.691406 3.640625 -16.609375 C 5.140625 -17.535156 7.035156 -18 9.328125 -18 Z M 9.328125 -18 "/></g></g></g><g fill="#ffffff" fill-opacity="1"><g transform="translate(187.425485, 348.498639)"><g><path d="M 1.71875 -15.171875 L 1.71875 -18.640625 L 6.84375 -18.640625 L 6.84375 -15.171875 Z M 1.71875 0 L 1.71875 -13.578125 L 6.84375 -13.578125 L 6.84375 0 Z M 1.71875 0 "/></g></g></g><g fill="#ffffff" fill-opacity="1"><g transform="translate(195.983296, 348.498639)"><g><path d="M 8 -13.875 C 9.8125 -13.875 11.347656 -13.519531 12.609375 -12.8125 C 13.867188 -12.101562 14.5 -11.003906 14.5 -9.515625 L 9.734375 -9.515625 C 9.734375 -10.003906 9.515625 -10.351562 9.078125 -10.5625 C 8.765625 -10.738281 8.378906 -10.828125 7.921875 -10.828125 C 6.679688 -10.828125 6.0625 -10.535156 6.0625 -9.953125 C 6.0625 -9.617188 6.273438 -9.382812 6.703125 -9.25 C 7.128906 -9.113281 7.832031 -8.96875 8.8125 -8.8125 C 10.007812 -8.644531 11.007812 -8.441406 11.8125 -8.203125 C 12.625 -7.972656 13.328125 -7.5625 13.921875 -6.96875 C 14.523438 -6.382812 14.828125 -5.5625 14.828125 -4.5 C 14.828125 -2.769531 14.179688 -1.535156 12.890625 -0.796875 C 11.597656 -0.0546875 9.90625 0.3125 7.8125 0.3125 C 6.613281 0.3125 5.484375 0.144531 4.421875 -0.1875 C 3.359375 -0.519531 2.492188 -1.035156 1.828125 -1.734375 C 1.160156 -2.441406 0.828125 -3.335938 0.828125 -4.421875 L 5.578125 -4.421875 L 5.578125 -4.3125 C 5.597656 -3.726562 5.84375 -3.320312 6.3125 -3.09375 C 6.78125 -2.863281 7.28125 -2.75 7.8125 -2.75 C 9.238281 -2.75 9.953125 -3.082031 9.953125 -3.75 C 9.953125 -4.09375 9.726562 -4.34375 9.28125 -4.5 C 8.832031 -4.65625 8.101562 -4.816406 7.09375 -4.984375 C 5.875 -5.191406 4.875 -5.414062 4.09375 -5.65625 C 3.320312 -5.894531 2.644531 -6.300781 2.0625 -6.875 C 1.476562 -7.445312 1.1875 -8.25 1.1875 -9.28125 C 1.1875 -10.9375 1.8125 -12.113281 3.0625 -12.8125 C 4.320312 -13.519531 5.96875 -13.875 8 -13.875 Z M 8 -13.875 "/></g></g></g><g fill="#ffffff" fill-opacity="1"><g transform="translate(211.685471, 348.498639)"><g><path d="M 10.59375 -13.578125 L 10.59375 -10.09375 L 7.71875 -10.09375 L 7.71875 -4.9375 C 7.71875 -4.320312 7.816406 -3.867188 8.015625 -3.578125 C 8.222656 -3.296875 8.601562 -3.15625 9.15625 -3.15625 L 10.59375 -3.15625 L 10.59375 -0.15625 C 10.175781 -0.0195312 9.640625 0.0859375 8.984375 0.171875 C 8.335938 0.265625 7.773438 0.3125 7.296875 0.3125 C 5.785156 0.3125 4.625 0.0351562 3.8125 -0.515625 C 3 -1.066406 2.59375 -2 2.59375 -3.3125 L 2.59375 -10.09375 L 0.6875 -10.09375 L 0.6875 -13.578125 L 2.796875 -13.578125 L 3.90625 -17.6875 L 7.71875 -17.6875 L 7.71875 -13.578125 Z M 10.59375 -13.578125 "/></g></g></g><g fill="#ffffff" fill-opacity="1"><g transform="translate(223.095894, 348.498639)"><g><path d="M 8.5625 -13.875 C 11.039062 -13.875 12.9375 -13.289062 14.25 -12.125 C 15.5625 -10.96875 16.21875 -9.1875 16.21875 -6.78125 L 16.21875 -5.90625 L 6.046875 -5.90625 C 6.046875 -4.9375 6.257812 -4.203125 6.6875 -3.703125 C 7.125 -3.203125 7.816406 -2.953125 8.765625 -2.953125 C 9.617188 -2.953125 10.25 -3.128906 10.65625 -3.484375 C 11.0625 -3.847656 11.265625 -4.332031 11.265625 -4.9375 L 16.21875 -4.9375 C 16.21875 -3.289062 15.59375 -2.003906 14.34375 -1.078125 C 13.09375 -0.148438 11.269531 0.3125 8.875 0.3125 C 6.351562 0.3125 4.394531 -0.273438 3 -1.453125 C 1.613281 -2.628906 0.921875 -4.40625 0.921875 -6.78125 C 0.921875 -9.113281 1.597656 -10.878906 2.953125 -12.078125 C 4.304688 -13.273438 6.175781 -13.875 8.5625 -13.875 Z M 8.765625 -10.609375 C 7.148438 -10.609375 6.25 -9.847656 6.0625 -8.328125 L 11.046875 -8.328125 C 11.046875 -9.023438 10.84375 -9.578125 10.4375 -9.984375 C 10.039062 -10.398438 9.484375 -10.609375 8.765625 -10.609375 Z M 8.765625 -10.609375 "/></g></g></g><g fill="#ffffff" fill-opacity="1"><g transform="translate(240.23722, 348.498639)"><g><path d="M 19.5625 -13.875 C 21.101562 -13.875 22.257812 -13.429688 23.03125 -12.546875 C 23.800781 -11.671875 24.1875 -10.421875 24.1875 -8.796875 L 24.1875 0 L 19.078125 0 L 19.078125 -8.171875 C 19.078125 -8.753906 18.929688 -9.21875 18.640625 -9.5625 C 18.359375 -9.914062 17.960938 -10.09375 17.453125 -10.09375 C 16.847656 -10.09375 16.359375 -9.890625 15.984375 -9.484375 C 15.609375 -9.078125 15.421875 -8.570312 15.421875 -7.96875 L 15.421875 0 L 10.3125 0 L 10.3125 -8.171875 C 10.3125 -8.753906 10.164062 -9.21875 9.875 -9.5625 C 9.59375 -9.914062 9.195312 -10.09375 8.6875 -10.09375 C 8.082031 -10.09375 7.59375 -9.890625 7.21875 -9.484375 C 6.84375 -9.078125 6.65625 -8.570312 6.65625 -7.96875 L 6.65625 0 L 1.546875 0 L 1.546875 -13.578125 L 5.734375 -13.578125 L 6.0625 -11.546875 C 6.582031 -12.265625 7.265625 -12.832031 8.109375 -13.25 C 8.953125 -13.664062 9.847656 -13.875 10.796875 -13.875 C 12.835938 -13.875 14.207031 -13.097656 14.90625 -11.546875 C 15.4375 -12.265625 16.117188 -12.832031 16.953125 -13.25 C 17.785156 -13.664062 18.65625 -13.875 19.5625 -13.875 Z M 19.5625 -13.875 "/></g></g></g><g fill="#ffffff" fill-opacity="1"><g transform="translate(265.936358, 348.498639)"><g/></g></g><g fill="#ffffff" fill-opacity="1"><g transform="translate(274.494169, 348.498639)"><g><path d="M 19.5625 -13.875 C 21.101562 -13.875 22.257812 -13.429688 23.03125 -12.546875 C 23.800781 -11.671875 24.1875 -10.421875 24.1875 -8.796875 L 24.1875 0 L 19.078125 0 L 19.078125 -8.171875 C 19.078125 -8.753906 18.929688 -9.21875 18.640625 -9.5625 C 18.359375 -9.914062 17.960938 -10.09375 17.453125 -10.09375 C 16.847656 -10.09375 16.359375 -9.890625 15.984375 -9.484375 C 15.609375 -9.078125 15.421875 -8.570312 15.421875 -7.96875 L 15.421875 0 L 10.3125 0 L 10.3125 -8.171875 C 10.3125 -8.753906 10.164062 -9.21875 9.875 -9.5625 C 9.59375 -9.914062 9.195312 -10.09375 8.6875 -10.09375 C 8.082031 -10.09375 7.59375 -9.890625 7.21875 -9.484375 C 6.84375 -9.078125 6.65625 -8.570312 6.65625 -7.96875 L 6.65625 0 L 1.546875 0 L 1.546875 -13.578125 L 5.734375 -13.578125 L 6.0625 -11.546875 C 6.582031 -12.265625 7.265625 -12.832031 8.109375 -13.25 C 8.953125 -13.664062 9.847656 -13.875 10.796875 -13.875 C 12.835938 -13.875 14.207031 -13.097656 14.90625 -11.546875 C 15.4375 -12.265625 16.117188 -12.832031 16.953125 -13.25 C 17.785156 -13.664062 18.65625 -13.875 19.5625 -13.875 Z M 19.5625 -13.875 "/></g></g></g><g fill="#ffffff" fill-opacity="1"><g transform="translate(300.193307, 348.498639)"><g><path d="M 8.5625 -13.875 C 10.9375 -13.875 12.804688 -13.269531 14.171875 -12.0625 C 15.535156 -10.851562 16.21875 -9.09375 16.21875 -6.78125 C 16.21875 -4.46875 15.535156 -2.707031 14.171875 -1.5 C 12.804688 -0.289062 10.9375 0.3125 8.5625 0.3125 C 6.175781 0.3125 4.304688 -0.285156 2.953125 -1.484375 C 1.597656 -2.691406 0.921875 -4.457031 0.921875 -6.78125 C 0.921875 -9.113281 1.597656 -10.878906 2.953125 -12.078125 C 4.304688 -13.273438 6.175781 -13.875 8.5625 -13.875 Z M 8.5625 -10.40625 C 6.882812 -10.40625 6.046875 -9.4375 6.046875 -7.5 L 6.046875 -6.046875 C 6.046875 -4.117188 6.882812 -3.15625 8.5625 -3.15625 C 10.257812 -3.15625 11.109375 -4.117188 11.109375 -6.046875 L 11.109375 -7.5 C 11.109375 -9.4375 10.257812 -10.40625 8.5625 -10.40625 Z M 8.5625 -10.40625 "/></g></g></g><g fill="#ffffff" fill-opacity="1"><g transform="translate(317.334633, 348.498639)"><g><path d="M 10.890625 -13.875 C 12.472656 -13.875 13.65625 -13.4375 14.4375 -12.5625 C 15.226562 -11.695312 15.625 -10.441406 15.625 -8.796875 L 15.625 0 L 10.515625 0 L 10.515625 -8.171875 C 10.515625 -8.753906 10.363281 -9.21875 10.0625 -9.5625 C 9.757812 -9.914062 9.335938 -10.09375 8.796875 -10.09375 C 8.160156 -10.09375 7.644531 -9.890625 7.25 -9.484375 C 6.851562 -9.078125 6.65625 -8.570312 6.65625 -7.96875 L 6.65625 0 L 1.546875 0 L 1.546875 -13.578125 L 5.734375 -13.578125 L 6.0625 -11.515625 C 6.59375 -12.234375 7.289062 -12.804688 8.15625 -13.234375 C 9.019531 -13.660156 9.929688 -13.875 10.890625 -13.875 Z M 10.890625 -13.875 "/></g></g></g><g fill="#ffffff" fill-opacity="1"><g transform="translate(334.47596, 348.498639)"><g><path d="M 1.71875 -15.171875 L 1.71875 -18.640625 L 6.84375 -18.640625 L 6.84375 -15.171875 Z M 1.71875 0 L 1.71875 -13.578125 L 6.84375 -13.578125 L 6.84375 0 Z M 1.71875 0 "/></g></g></g><g fill="#ffffff" fill-opacity="1"><g transform="translate(343.033771, 348.498639)"><g><path d="M 10.59375 -13.578125 L 10.59375 -10.09375 L 7.71875 -10.09375 L 7.71875 -4.9375 C 7.71875 -4.320312 7.816406 -3.867188 8.015625 -3.578125 C 8.222656 -3.296875 8.601562 -3.15625 9.15625 -3.15625 L 10.59375 -3.15625 L 10.59375 -0.15625 C 10.175781 -0.0195312 9.640625 0.0859375 8.984375 0.171875 C 8.335938 0.265625 7.773438 0.3125 7.296875 0.3125 C 5.785156 0.3125 4.625 0.0351562 3.8125 -0.515625 C 3 -1.066406 2.59375 -2 2.59375 -3.3125 L 2.59375 -10.09375 L 0.6875 -10.09375 L 0.6875 -13.578125 L 2.796875 -13.578125 L 3.90625 -17.6875 L 7.71875 -17.6875 L 7.71875 -13.578125 Z M 10.59375 -13.578125 "/></g></g></g><g fill="#ffffff" fill-opacity="1"><g transform="translate(354.444194, 348.498639)"><g><path d="M 8.5625 -13.875 C 10.9375 -13.875 12.804688 -13.269531 14.171875 -12.0625 C 15.535156 -10.851562 16.21875 -9.09375 16.21875 -6.78125 C 16.21875 -4.46875 15.535156 -2.707031 14.171875 -1.5 C 12.804688 -0.289062 10.9375 0.3125 8.5625 0.3125 C 6.175781 0.3125 4.304688 -0.285156 2.953125 -1.484375 C 1.597656 -2.691406 0.921875 -4.457031 0.921875 -6.78125 C 0.921875 -9.113281 1.597656 -10.878906 2.953125 -12.078125 C 4.304688 -13.273438 6.175781 -13.875 8.5625 -13.875 Z M 8.5625 -10.40625 C 6.882812 -10.40625 6.046875 -9.4375 6.046875 -7.5 L 6.046875 -6.046875 C 6.046875 -4.117188 6.882812 -3.15625 8.5625 -3.15625 C 10.257812 -3.15625 11.109375 -4.117188 11.109375 -6.046875 L 11.109375 -7.5 C 11.109375 -9.4375 10.257812 -10.40625 8.5625 -10.40625 Z M 8.5625 -10.40625 "/></g></g></g><g fill="#ffffff" fill-opacity="1"><g transform="translate(371.585531, 348.498639)"><g><path d="M 9.796875 -13.90625 C 10.191406 -13.90625 10.539062 -13.859375 10.84375 -13.765625 C 11.15625 -13.671875 11.3125 -13.613281 11.3125 -13.59375 L 11.3125 -9.296875 L 9.671875 -9.296875 C 8.609375 -9.296875 7.835938 -9.019531 7.359375 -8.46875 C 6.890625 -7.925781 6.65625 -7.117188 6.65625 -6.046875 L 6.65625 0 L 1.546875 0 L 1.546875 -13.578125 L 5.734375 -13.578125 L 6.0625 -11.515625 C 6.375 -12.304688 6.863281 -12.898438 7.53125 -13.296875 C 8.195312 -13.703125 8.953125 -13.90625 9.796875 -13.90625 Z M 9.796875 -13.90625 "/></g></g></g><g fill="#ffffff" fill-opacity="1"><g transform="translate(382.995931, 348.498639)"><g><path d="M 1.71875 -15.171875 L 1.71875 -18.640625 L 6.84375 -18.640625 L 6.84375 -15.171875 Z M 1.71875 0 L 1.71875 -13.578125 L 6.84375 -13.578125 L 6.84375 0 Z M 1.71875 0 "/></g></g></g><g fill="#ffffff" fill-opacity="1"><g transform="translate(391.553754, 348.498639)"><g><path d="M 10.890625 -13.875 C 12.472656 -13.875 13.65625 -13.4375 14.4375 -12.5625 C 15.226562 -11.695312 15.625 -10.441406 15.625 -8.796875 L 15.625 0 L 10.515625 0 L 10.515625 -8.171875 C 10.515625 -8.753906 10.363281 -9.21875 10.0625 -9.5625 C 9.757812 -9.914062 9.335938 -10.09375 8.796875 -10.09375 C 8.160156 -10.09375 7.644531 -9.890625 7.25 -9.484375 C 6.851562 -9.078125 6.65625 -8.570312 6.65625 -7.96875 L 6.65625 0 L 1.546875 0 L 1.546875 -13.578125 L 5.734375 -13.578125 L 6.0625 -11.515625 C 6.59375 -12.234375 7.289062 -12.804688 8.15625 -13.234375 C 9.019531 -13.660156 9.929688 -13.875 10.890625 -13.875 Z M 10.890625 -13.875 "/></g></g></g><g fill="#ffffff" fill-opacity="1"><g transform="translate(408.695081, 348.498639)"><g><path d="M 16.8125 -16.109375 C 16.8125 -15.066406 16.546875 -14.265625 16.015625 -13.703125 C 15.492188 -13.140625 14.710938 -12.71875 13.671875 -12.4375 C 14.171875 -12.0625 14.5625 -11.617188 14.84375 -11.109375 C 15.125 -10.609375 15.265625 -10.078125 15.265625 -9.515625 C 15.265625 -8.066406 14.71875 -6.972656 13.625 -6.234375 C 12.539062 -5.503906 11.1875 -5.140625 9.5625 -5.140625 L 7.609375 -5.140625 C 6.523438 -5.140625 5.984375 -4.890625 5.984375 -4.390625 C 5.984375 -4.148438 6.101562 -3.957031 6.34375 -3.8125 C 6.582031 -3.664062 7.003906 -3.59375 7.609375 -3.59375 L 12.234375 -3.59375 C 13.742188 -3.59375 14.882812 -3.195312 15.65625 -2.40625 C 16.425781 -1.625 16.8125 -0.570312 16.8125 0.75 C 16.8125 1.71875 16.550781 2.550781 16.03125 3.25 C 15.519531 3.957031 14.828125 4.488281 13.953125 4.84375 C 13.078125 5.207031 12.128906 5.390625 11.109375 5.390625 L 3.546875 5.390625 C 2.929688 5.390625 2.359375 5.242188 1.828125 4.953125 C 1.304688 4.671875 0.890625 4.273438 0.578125 3.765625 C 0.273438 3.253906 0.125 2.691406 0.125 2.078125 C 0.125 1.410156 0.328125 0.804688 0.734375 0.265625 C 1.148438 -0.273438 1.664062 -0.679688 2.28125 -0.953125 C 1.875 -1.242188 1.550781 -1.59375 1.3125 -2 C 1.070312 -2.414062 0.953125 -2.863281 0.953125 -3.34375 C 0.953125 -4.007812 1.195312 -4.613281 1.6875 -5.15625 C 2.1875 -5.695312 2.804688 -6.0625 3.546875 -6.25 C 2.878906 -6.675781 2.347656 -7.164062 1.953125 -7.71875 C 1.554688 -8.28125 1.359375 -8.867188 1.359375 -9.484375 C 1.359375 -11.054688 1.992188 -12.179688 3.265625 -12.859375 C 4.546875 -13.535156 6.242188 -13.875 8.359375 -13.875 C 9.273438 -13.875 10.019531 -13.820312 10.59375 -13.71875 C 11.425781 -14.25 11.96875 -14.734375 12.21875 -15.171875 C 12.46875 -15.609375 12.59375 -15.921875 12.59375 -16.109375 Z M 8.296875 -11.203125 C 7.734375 -11.203125 7.269531 -11.054688 6.90625 -10.765625 C 6.550781 -10.472656 6.375 -10.054688 6.375 -9.515625 C 6.375 -8.941406 6.539062 -8.515625 6.875 -8.234375 C 7.207031 -7.953125 7.679688 -7.8125 8.296875 -7.8125 C 8.921875 -7.8125 9.40625 -7.953125 9.75 -8.234375 C 10.101562 -8.515625 10.28125 -8.941406 10.28125 -9.515625 C 10.28125 -10.078125 10.101562 -10.5 9.75 -10.78125 C 9.40625 -11.0625 8.921875 -11.203125 8.296875 -11.203125 Z M 6.328125 0 C 5.929688 0 5.609375 0.101562 5.359375 0.3125 C 5.109375 0.53125 4.984375 0.835938 4.984375 1.234375 C 4.984375 1.628906 5.109375 1.945312 5.359375 2.1875 C 5.617188 2.425781 5.941406 2.546875 6.328125 2.546875 L 10.328125 2.546875 C 10.703125 2.546875 11.019531 2.425781 11.28125 2.1875 C 11.550781 1.957031 11.6875 1.648438 11.6875 1.265625 C 11.6875 0.867188 11.554688 0.554688 11.296875 0.328125 C 11.046875 0.109375 10.722656 0 10.328125 0 Z M 6.328125 0 "/></g></g></g><g fill="#ffffff" fill-opacity="1"><g transform="translate(425.836407, 348.498639)"><g/></g></g><g fill="#ffffff" fill-opacity="1"><g transform="translate(434.39423, 348.498639)"><g><path d="M 6.6875 -12.3125 C 7.65625 -13.351562 8.921875 -13.875 10.484375 -13.875 C 12.316406 -13.875 13.726562 -13.28125 14.71875 -12.09375 C 15.71875 -10.90625 16.21875 -9.144531 16.21875 -6.8125 C 16.21875 -4.46875 15.71875 -2.691406 14.71875 -1.484375 C 13.726562 -0.285156 12.316406 0.3125 10.484375 0.3125 C 8.597656 0.3125 7.160156 -0.429688 6.171875 -1.921875 L 5.734375 0 L 1.5625 0 L 1.5625 -18.640625 L 6.6875 -18.640625 Z M 8.890625 -10.09375 C 8.140625 -10.09375 7.570312 -9.820312 7.1875 -9.28125 C 6.8125 -8.75 6.625 -8.054688 6.625 -7.203125 L 6.625 -6.34375 C 6.625 -5.488281 6.8125 -4.796875 7.1875 -4.265625 C 7.570312 -3.734375 8.140625 -3.46875 8.890625 -3.46875 C 10.367188 -3.46875 11.109375 -4.34375 11.109375 -6.09375 L 11.109375 -7.453125 C 11.109375 -9.210938 10.367188 -10.09375 8.890625 -10.09375 Z M 8.890625 -10.09375 "/></g></g></g><g fill="#ffffff" fill-opacity="1"><g transform="translate(451.535557, 348.498639)"><g><path d="M 11.390625 0 L 11.046875 -2.0625 C 10.515625 -1.320312 9.816406 -0.738281 8.953125 -0.3125 C 8.085938 0.101562 7.175781 0.3125 6.21875 0.3125 C 4.644531 0.3125 3.460938 -0.125 2.671875 -1 C 1.878906 -1.875 1.484375 -3.132812 1.484375 -4.78125 L 1.484375 -13.578125 L 6.609375 -13.578125 L 6.609375 -5.390625 C 6.609375 -4.816406 6.753906 -4.351562 7.046875 -4 C 7.347656 -3.644531 7.773438 -3.46875 8.328125 -3.46875 C 8.960938 -3.46875 9.476562 -3.671875 9.875 -4.078125 C 10.269531 -4.492188 10.46875 -5.003906 10.46875 -5.609375 L 10.46875 -13.578125 L 15.578125 -13.578125 L 15.578125 0 Z M 11.390625 0 "/></g></g></g><g fill="#ffffff" fill-opacity="1"><g transform="translate(468.676883, 348.498639)"><g><path d="M 16.8125 -16.109375 C 16.8125 -15.066406 16.546875 -14.265625 16.015625 -13.703125 C 15.492188 -13.140625 14.710938 -12.71875 13.671875 -12.4375 C 14.171875 -12.0625 14.5625 -11.617188 14.84375 -11.109375 C 15.125 -10.609375 15.265625 -10.078125 15.265625 -9.515625 C 15.265625 -8.066406 14.71875 -6.972656 13.625 -6.234375 C 12.539062 -5.503906 11.1875 -5.140625 9.5625 -5.140625 L 7.609375 -5.140625 C 6.523438 -5.140625 5.984375 -4.890625 5.984375 -4.390625 C 5.984375 -4.148438 6.101562 -3.957031 6.34375 -3.8125 C 6.582031 -3.664062 7.003906 -3.59375 7.609375 -3.59375 L 12.234375 -3.59375 C 13.742188 -3.59375 14.882812 -3.195312 15.65625 -2.40625 C 16.425781 -1.625 16.8125 -0.570312 16.8125 0.75 C 16.8125 1.71875 16.550781 2.550781 16.03125 3.25 C 15.519531 3.957031 14.828125 4.488281 13.953125 4.84375 C 13.078125 5.207031 12.128906 5.390625 11.109375 5.390625 L 3.546875 5.390625 C 2.929688 5.390625 2.359375 5.242188 1.828125 4.953125 C 1.304688 4.671875 0.890625 4.273438 0.578125 3.765625 C 0.273438 3.253906 0.125 2.691406 0.125 2.078125 C 0.125 1.410156 0.328125 0.804688 0.734375 0.265625 C 1.148438 -0.273438 1.664062 -0.679688 2.28125 -0.953125 C 1.875 -1.242188 1.550781 -1.59375 1.3125 -2 C 1.070312 -2.414062 0.953125 -2.863281 0.953125 -3.34375 C 0.953125 -4.007812 1.195312 -4.613281 1.6875 -5.15625 C 2.1875 -5.695312 2.804688 -6.0625 3.546875 -6.25 C 2.878906 -6.675781 2.347656 -7.164062 1.953125 -7.71875 C 1.554688 -8.28125 1.359375 -8.867188 1.359375 -9.484375 C 1.359375 -11.054688 1.992188 -12.179688 3.265625 -12.859375 C 4.546875 -13.535156 6.242188 -13.875 8.359375 -13.875 C 9.273438 -13.875 10.019531 -13.820312 10.59375 -13.71875 C 11.425781 -14.25 11.96875 -14.734375 12.21875 -15.171875 C 12.46875 -15.609375 12.59375 -15.921875 12.59375 -16.109375 Z M 8.296875 -11.203125 C 7.734375 -11.203125 7.269531 -11.054688 6.90625 -10.765625 C 6.550781 -10.472656 6.375 -10.054688 6.375 -9.515625 C 6.375 -8.941406 6.539062 -8.515625 6.875 -8.234375 C 7.207031 -7.953125 7.679688 -7.8125 8.296875 -7.8125 C 8.921875 -7.8125 9.40625 -7.953125 9.75 -8.234375 C 10.101562 -8.515625 10.28125 -8.941406 10.28125 -9.515625 C 10.28125 -10.078125 10.101562 -10.5 9.75 -10.78125 C 9.40625 -11.0625 8.921875 -11.203125 8.296875 -11.203125 Z M 6.328125 0 C 5.929688 0 5.609375 0.101562 5.359375 0.3125 C 5.109375 0.53125 4.984375 0.835938 4.984375 1.234375 C 4.984375 1.628906 5.109375 1.945312 5.359375 2.1875 C 5.617188 2.425781 5.941406 2.546875 6.328125 2.546875 L 10.328125 2.546875 C 10.703125 2.546875 11.019531 2.425781 11.28125 2.1875 C 11.550781 1.957031 11.6875 1.648438 11.6875 1.265625 C 11.6875 0.867188 11.554688 0.554688 11.296875 0.328125 C 11.046875 0.109375 10.722656 0 10.328125 0 Z M 6.328125 0 "/></g></g></g><g fill="#ffffff" fill-opacity="1"><g transform="translate(486.07522, 348.498639)"><g><path d="M 16.8125 -16.109375 C 16.8125 -15.066406 16.546875 -14.265625 16.015625 -13.703125 C 15.492188 -13.140625 14.710938 -12.71875 13.671875 -12.4375 C 14.171875 -12.0625 14.5625 -11.617188 14.84375 -11.109375 C 15.125 -10.609375 15.265625 -10.078125 15.265625 -9.515625 C 15.265625 -8.066406 14.71875 -6.972656 13.625 -6.234375 C 12.539062 -5.503906 11.1875 -5.140625 9.5625 -5.140625 L 7.609375 -5.140625 C 6.523438 -5.140625 5.984375 -4.890625 5.984375 -4.390625 C 5.984375 -4.148438 6.101562 -3.957031 6.34375 -3.8125 C 6.582031 -3.664062 7.003906 -3.59375 7.609375 -3.59375 L 12.234375 -3.59375 C 13.742188 -3.59375 14.882812 -3.195312 15.65625 -2.40625 C 16.425781 -1.625 16.8125 -0.570312 16.8125 0.75 C 16.8125 1.71875 16.550781 2.550781 16.03125 3.25 C 15.519531 3.957031 14.828125 4.488281 13.953125 4.84375 C 13.078125 5.207031 12.128906 5.390625 11.109375 5.390625 L 3.546875 5.390625 C 2.929688 5.390625 2.359375 5.242188 1.828125 4.953125 C 1.304688 4.671875 0.890625 4.273438 0.578125 3.765625 C 0.273438 3.253906 0.125 2.691406 0.125 2.078125 C 0.125 1.410156 0.328125 0.804688 0.734375 0.265625 C 1.148438 -0.273438 1.664062 -0.679688 2.28125 -0.953125 C 1.875 -1.242188 1.550781 -1.59375 1.3125 -2 C 1.070312 -2.414062 0.953125 -2.863281 0.953125 -3.34375 C 0.953125 -4.007812 1.195312 -4.613281 1.6875 -5.15625 C 2.1875 -5.695312 2.804688 -6.0625 3.546875 -6.25 C 2.878906 -6.675781 2.347656 -7.164062 1.953125 -7.71875 C 1.554688 -8.28125 1.359375 -8.867188 1.359375 -9.484375 C 1.359375 -11.054688 1.992188 -12.179688 3.265625 -12.859375 C 4.546875 -13.535156 6.242188 -13.875 8.359375 -13.875 C 9.273438 -13.875 10.019531 -13.820312 10.59375 -13.71875 C 11.425781 -14.25 11.96875 -14.734375 12.21875 -15.171875 C 12.46875 -15.609375 12.59375 -15.921875 12.59375 -16.109375 Z M 8.296875 -11.203125 C 7.734375 -11.203125 7.269531 -11.054688 6.90625 -10.765625 C 6.550781 -10.472656 6.375 -10.054688 6.375 -9.515625 C 6.375 -8.941406 6.539062 -8.515625 6.875 -8.234375 C 7.207031 -7.953125 7.679688 -7.8125 8.296875 -7.8125 C 8.921875 -7.8125 9.40625 -7.953125 9.75 -8.234375 C 10.101562 -8.515625 10.28125 -8.941406 10.28125 -9.515625 C 10.28125 -10.078125 10.101562 -10.5 9.75 -10.78125 C 9.40625 -11.0625 8.921875 -11.203125 8.296875 -11.203125 Z M 6.328125 0 C 5.929688 0 5.609375 0.101562 5.359375 0.3125 C 5.109375 0.53125 4.984375 0.835938 4.984375 1.234375 C 4.984375 1.628906 5.109375 1.945312 5.359375 2.1875 C 5.617188 2.425781 5.941406 2.546875 6.328125 2.546875 L 10.328125 2.546875 C 10.703125 2.546875 11.019531 2.425781 11.28125 2.1875 C 11.550781 1.957031 11.6875 1.648438 11.6875 1.265625 C 11.6875 0.867188 11.554688 0.554688 11.296875 0.328125 C 11.046875 0.109375 10.722656 0 10.328125 0 Z M 6.328125 0 "/></g></g></g><g fill="#ffffff" fill-opacity="1"><g transform="translate(503.653505, 348.498639)"><g><path d="M 10.875 -0.40625 C 10.164062 1.488281 9.300781 2.925781 8.28125 3.90625 C 7.269531 4.894531 5.847656 5.390625 4.015625 5.390625 C 2.898438 5.390625 1.910156 5.238281 1.046875 4.9375 L 1.046875 1.875 L 3.109375 1.875 C 4.390625 1.875 5.148438 1.25 5.390625 0 L 0 -13.578125 L 5.5 -13.578125 L 8.09375 -4.546875 L 8.28125 -4.546875 L 10.671875 -13.578125 L 15.703125 -13.578125 Z M 10.875 -0.40625 "/></g></g></g></svg>